<svg width="54" height="54" xmlns="http://www.w3.org/2000/svg" version="1.0" viewBox="0 0 96 96">
  <path d="M40.7 4.9C39.2 5.4 33 8.6 27 12 7.6 22.9 5.5 26.4 5.5 48c0 13.9.1 14.7 2.9 20.3 3.4 6.9 7.3 10 22.8 18.1 9.2 4.7 11.6 5.6 16.2 5.6 6.8 0 9.6-1 22.5-8.2 12.5-7 14.4-8.6 17.9-15.3 2.6-4.8 2.7-5.7 2.7-20.5 0-15.5 0-15.5-3.1-21-3.4-6.1-7.8-9.5-22.7-17.5-7.2-3.9-9.9-4.8-15-5.1-3.4-.2-7.4.1-9 .5zM22 46.5c.6 13.3 1 14.7 4.6 16.4 4 1.8 8.1 1.3 11.1-1.3 2.8-2.4 2.8-2.6 3.2-15.1.3-11 .5-12.6 2-12.3 1.4.3 1.6 2.1 1.9 12.3.2 13.5-.4 15.6-5.7 19.2-6.3 4.3-16.5 2.2-19.8-4.1-1.2-2.2-1.8-6.2-2-13.8-.3-11.8.1-14.1 2.6-13.6 1.3.3 1.7 2.3 2.1 12.3zm53.4-9.6c3.3 3.1 3.5 8.5.4 11.8-1.2 1.3-1.6 2.3-1 2.3 2.5 0 5.2 4 5.2 7.5 0 7.1-6.2 10-19.5 9.3l-6-.3-.3-15.5c-.1-8.5 0-16 .3-16.8.4-1.1 2.5-1.3 9.4-1 7.8.3 9.3.6 11.5 2.7z"/>
  <path d="M58.4 39.4c-.3.8-.4 3.1-.2 5.2l.3 3.9 6.2-.1c3.4 0 6.9-.7 7.8-1.4 2.2-1.8 1.8-5.6-.7-7.4-2.9-2.1-12.6-2.2-13.4-.2zM58 58v5h7.4c7.8 0 10.6-1.3 10.6-4.9 0-3.6-3.2-5.1-10.8-5.1H58v5z"/>
</svg>
